# xmcd
#
# Track frame offsets: 
#        150
#        21327
#        39762
#        70905
#        85277
#        102345
#        121711
#        141369
#        165438
#        182326
#        213625
#        242142
#        262033
#        278626
#
# Disc length: 3921 seconds
#
# Revision: 2
# Processed by: cddbd v1.5.2PL0 Copyright (c) Steve Scherf et al.
# Submitted via: ExactAudioCopyFreeDBPlugin 1.0
#
DISCID=bf0f4f0e
DTITLE=Various Artist - High Endition Volume 9 - Life Stories
DYEAR=2006
DGENRE=High End Society
TTITLE0=David Munyon - Four Wild Horses
TTITLE1=Mike Silver - Who Wants To Be The One?
TTITLE2=Allan Taylor - Beat Hotel
TTITLE3=Katinka Wilson - Why
TTITLE4=Allan Taylor - Wheel Of Fortune
TTITLE5=Peder af Ugglas - Stockholm
TTITLE6=Mike Silver - Not A Matter Of Pride
TTITLE7=David Munyon - N.Y.C.
TTITLE8=Chris Jones - No Sanctuary Here
TTITLE9=Laliya - Baba Ghanoush
TTITLE10=David Munyon - The Changes Always Win
TTITLE11=Steve Strauss - Argyle Bridge
TTITLE12=Mike Silver - You
TTITLE13=Allan Taylor - Scotty
EXTD=
EXTT0=
EXTT1=
EXTT2=
EXTT3=
EXTT4=
EXTT5=
EXTT6=
EXTT7=
EXTT8=
EXTT9=
EXTT10=
EXTT11=
EXTT12=
EXTT13=
PLAYORDER=
